# This file uses centimeters as units for non-parametric coordinates.

mtllib Book.mtl
g default
v -0.160269 7.545689 3.216164
v -0.160269 7.705927 3.376400
v -0.320507 7.705927 3.216164
v 0.320507 7.705927 3.216164
v 0.160269 7.705927 3.376400
v 0.160269 7.545689 3.216164
v -0.320507 10.300392 3.216164
v -0.160269 10.300392 3.376400
v -0.160269 10.460629 3.216164
v 0.160269 10.460629 3.216164
v 0.160269 10.300392 3.376400
v 0.320507 10.300392 3.216164
v -0.320507 10.300392 0.621699
v -0.160269 10.460629 0.621699
v -0.160269 10.300392 0.461461
v 0.160269 10.300392 0.461461
v 0.160269 10.460629 0.621699
v 0.320507 10.300392 0.621699
v -0.320507 7.705927 0.621699
v -0.160269 7.705927 0.461461
v -0.160269 7.545689 0.621699
v 0.160269 7.545689 0.621699
v 0.160269 7.705927 0.461461
v 0.320507 7.705927 0.621699
vt 0.054970 0.000000
vt 0.054970 0.054971
vt 0.945028 0.054971
vt 0.945028 0.000000
vt -0.000000 0.054971
vt 0.054970 0.000000
vt -0.000000 0.054971
vt -0.000000 0.945029
vt 0.054970 0.945029
vt 0.054970 0.054971
vt 0.945028 0.000000
vt 0.945028 0.054971
vt 0.054970 0.945029
vt -0.000000 0.945029
vt 0.054970 1.000000
vt 0.945028 1.000000
vt 0.945028 0.945029
vt 0.054970 1.000000
vt 0.945028 0.945029
vt 0.945028 1.000000
vt 1.000000 0.945029
vt 1.000000 0.054971
vt 1.000000 0.945029
vt 1.000000 0.054971
vn -0.707108 -0.707106 0.000000
vn -0.707108 -0.707106 0.000000
vn -0.707108 -0.707106 0.000000
vn -0.707108 -0.707106 0.000000
vn 0.000000 -0.707104 0.707110
vn 0.000000 -0.707104 0.707110
vn 0.000000 -0.707104 0.707110
vn 0.000000 -0.707104 0.707110
vn -0.707105 0.000000 0.707109
vn -0.707105 0.000000 0.707109
vn -0.707105 0.000000 0.707109
vn -0.707105 0.000000 0.707109
vn 0.707108 -0.707106 0.000000
vn 0.707108 -0.707106 0.000000
vn 0.707108 -0.707106 0.000000
vn 0.707108 -0.707106 0.000000
vn 0.707105 0.000000 0.707109
vn 0.707105 0.000000 0.707109
vn 0.707105 0.000000 0.707109
vn 0.707105 0.000000 0.707109
vn -0.707106 0.707107 0.000000
vn -0.707106 0.707107 0.000000
vn -0.707106 0.707107 0.000000
vn -0.707106 0.707107 0.000000
vn 0.000000 0.707105 0.707108
vn 0.000000 0.707105 0.707108
vn 0.000000 0.707105 0.707108
vn 0.000000 0.707105 0.707108
vn 0.707106 0.707107 0.000000
vn 0.707106 0.707107 0.000000
vn 0.707106 0.707107 0.000000
vn 0.707106 0.707107 0.000000
vn -0.707108 0.000000 -0.707106
vn -0.707108 0.000000 -0.707106
vn -0.707108 0.000000 -0.707106
vn -0.707108 0.000000 -0.707106
vn 0.000000 0.707108 -0.707105
vn 0.000000 0.707108 -0.707105
vn 0.000000 0.707108 -0.707105
vn 0.000000 0.707108 -0.707105
vn 0.707108 0.000000 -0.707106
vn 0.707108 0.000000 -0.707106
vn 0.707108 0.000000 -0.707106
vn 0.707108 0.000000 -0.707106
vn 0.000000 -0.707107 -0.707107
vn 0.000000 -0.707107 -0.707107
vn 0.000000 -0.707107 -0.707107
vn 0.000000 -0.707107 -0.707107
vn 0.000000 0.000000 1.000000
vn 0.000000 0.000000 1.000000
vn 0.000000 0.000000 1.000000
vn 0.000000 0.000000 1.000000
vn 0.000000 1.000000 0.000000
vn 0.000000 1.000000 0.000000
vn 0.000000 1.000000 0.000000
vn 0.000000 1.000000 0.000000
vn 0.000000 0.000000 -1.000000
vn 0.000000 0.000000 -1.000000
vn 0.000000 0.000000 -1.000000
vn 0.000000 0.000000 -1.000000
vn 0.000000 -1.000000 0.000000
vn 0.000000 -1.000000 0.000000
vn 0.000000 -1.000000 0.000000
vn 0.000000 -1.000000 0.000000
vn 1.000000 0.000000 0.000000
vn 1.000000 0.000000 0.000000
vn 1.000000 0.000000 0.000000
vn 1.000000 0.000000 0.000000
vn -1.000000 0.000000 0.000000
vn -1.000000 0.000000 0.000000
vn -1.000000 0.000000 0.000000
vn -1.000000 0.000000 0.000000
vn -0.577350 -0.577348 0.577353
vn -0.577350 -0.577348 0.577353
vn -0.577350 -0.577348 0.577353
vn 0.577350 -0.577348 0.577353
vn 0.577350 -0.577348 0.577353
vn 0.577350 -0.577348 0.577353
vn -0.577349 0.577350 0.577352
vn -0.577349 0.577350 0.577352
vn -0.577349 0.577350 0.577352
vn 0.577349 0.577350 0.577352
vn 0.577349 0.577350 0.577352
vn 0.577349 0.577350 0.577352
vn -0.577350 0.577351 -0.577349
vn -0.577350 0.577351 -0.577349
vn -0.577350 0.577351 -0.577349
vn 0.577350 0.577351 -0.577349
vn 0.577350 0.577351 -0.577349
vn 0.577350 0.577351 -0.577349
vn -0.577351 -0.577350 -0.577350
vn -0.577351 -0.577350 -0.577350
vn -0.577351 -0.577350 -0.577350
vn 0.577351 -0.577350 -0.577350
vn 0.577351 -0.577350 -0.577350
vn 0.577351 -0.577350 -0.577350
s off
g pCube1
usemtl lambert2SG
f 1/1/1 3/2/2 19/3/3 21/4/4
f 2/5/5 1/1/6 6/6/7 5/7/8
f 3/2/9 2/5/10 8/8/11 7/9/12
f 4/10/13 6/6/14 22/11/15 24/12/16
f 5/7/17 4/10/18 12/13/19 11/14/20
f 7/9/21 9/15/22 14/16/23 13/17/24
f 9/15/25 8/8/26 11/14/27 10/18/28
f 10/18/29 12/13/30 18/19/31 17/20/32
f 13/17/33 15/21/34 20/22/35 19/3/36
f 15/21/37 14/16/38 17/20/39 16/23/40
f 16/23/41 18/19/42 24/12/43 23/24/44
f 21/4/45 20/22/46 23/24/47 22/11/48
f 2/5/49 5/7/50 11/14/51 8/8/52
f 9/15/53 10/18/54 17/20/55 14/16/56
f 15/21/57 16/23/58 23/24/59 20/22/60
f 21/4/61 22/11/62 6/6/63 1/1/64
f 4/10/65 24/12/66 18/19/67 12/13/68
f 19/3/69 3/2/70 7/9/71 13/17/72
f 1/1/73 2/5/74 3/2/75
f 4/10/76 5/7/77 6/6/78
f 7/9/79 8/8/80 9/15/81
f 10/18/82 11/14/83 12/13/84
f 13/17/85 14/16/86 15/21/87
f 16/23/88 17/20/89 18/19/90
f 19/3/91 20/22/92 21/4/93
f 22/11/94 23/24/95 24/12/96
